<?xml version="1.0" encoding="UTF-8"?>
<svg xmlns="http://www.w3.org/2000/svg" xmlns:xlink="http://www.w3.org/1999/xlink" width="px" height="19px" viewBox="0 0 36 19" version="1.1">
<g id="surface1">
<path style=" stroke:none;fill-rule:nonzero;fill:rgb(0%,0%,0%);fill-opacity:1;" d="M 22.273438 1.199219 L 7.796875 1.199219 C 5.652344 1.199219 3.703125 2.101562 2.289062 3.554688 C 0.875 5.003906 0 7.007812 0 9.210938 C 0 11.414062 0.875 13.417969 2.289062 14.867188 C 3.703125 16.320312 5.652344 17.222656 7.796875 17.222656 L 21.382812 17.222656 C 22.898438 18.335938 24.753906 18.996094 26.746094 18.996094 L 26.757812 18.996094 C 29.300781 18.996094 31.613281 17.925781 33.285156 16.207031 C 34.960938 14.484375 36 12.113281 36 9.5 C 36 6.886719 34.960938 4.511719 33.285156 2.796875 C 31.609375 1.074219 29.296875 0.00390625 26.757812 0.00390625 L 26.746094 0.00390625 C 25.128906 0.00390625 23.601562 0.441406 22.273438 1.199219 Z M 27.238281 8.21875 L 27.269531 8.226562 C 27.328125 7.976562 27.46875 7.78125 27.695312 7.636719 C 27.917969 7.496094 28.152344 7.453125 28.398438 7.511719 L 28.40625 7.480469 C 28.160156 7.421875 27.96875 7.277344 27.832031 7.042969 C 27.691406 6.8125 27.648438 6.570312 27.707031 6.320312 L 27.675781 6.3125 C 27.621094 6.566406 27.476562 6.761719 27.253906 6.90625 C 27.027344 7.046875 26.792969 7.089844 26.546875 7.03125 L 26.542969 7.0625 C 26.785156 7.121094 26.976562 7.265625 27.117188 7.5 C 27.257812 7.730469 27.296875 7.96875 27.238281 8.21875 Z M 29.832031 9.433594 L 29.867188 9.441406 C 29.941406 9.125 30.117188 8.878906 30.402344 8.699219 C 30.683594 8.519531 30.976562 8.46875 31.285156 8.542969 L 31.292969 8.503906 C 30.988281 8.429688 30.746094 8.246094 30.574219 7.953125 C 30.398438 7.664062 30.347656 7.359375 30.417969 7.046875 L 30.378906 7.039062 C 30.308594 7.351562 30.132812 7.601562 29.847656 7.78125 C 29.566406 7.960938 29.269531 8.011719 28.964844 7.9375 L 28.957031 7.976562 C 29.261719 8.050781 29.503906 8.234375 29.675781 8.523438 C 29.851562 8.8125 29.902344 9.117188 29.832031 9.433594 Z M 27.105469 5.023438 C 26 5.578125 25.207031 6.703125 25.113281 8.054688 C 24.976562 10.066406 26.453125 11.816406 28.414062 11.957031 C 29.34375 12.023438 30.214844 11.714844 30.890625 11.160156 C 31.222656 10.882812 31.570312 11.128906 31.425781 11.476562 C 30.628906 13.382812 28.71875 14.65625 26.589844 14.503906 C 23.898438 14.308594 21.871094 11.910156 22.058594 9.144531 C 22.238281 6.492188 24.402344 4.460938 26.960938 4.484375 C 27.433594 4.488281 27.53125 4.808594 27.105469 5.023438 Z M 26.746094 1.128906 L 26.757812 1.128906 C 31.242188 1.128906 34.910156 4.894531 34.910156 9.5 C 34.910156 14.105469 31.234375 17.875 26.757812 17.875 L 26.746094 17.875 C 22.269531 17.875 18.597656 14.105469 18.597656 9.5 C 18.597656 4.894531 22.265625 1.128906 26.746094 1.128906 Z M 26.746094 1.128906 "/>
</g>
</svg>
