<?xml version="1.0" encoding="UTF-8"?>
<svg xmlns="http://www.w3.org/2000/svg" xmlns:xlink="http://www.w3.org/1999/xlink" width="24px" height="px" viewBox="0 0 24 24" version="1.1">
<g id="surface1">
<path style=" stroke:none;fill-rule:nonzero;fill:rgb(97.647059%,97.647059%,97.647059%);fill-opacity:1;" d="M 19.011719 0.242188 C 19.179688 0.0625 19.460938 0.0507812 19.644531 0.21875 C 19.824219 0.386719 19.835938 0.667969 19.667969 0.847656 L 16.011719 4.804688 L 16.007812 4.8125 C 15.558594 5.355469 15.253906 5.855469 15.117188 6.3125 C 14.996094 6.714844 15.011719 7.082031 15.191406 7.402344 C 15.289062 7.574219 15.257812 7.785156 15.128906 7.925781 L 13.394531 9.804688 C 13.222656 9.617188 13.089844 9.46875 13 9.371094 C 12.957031 9.316406 12.910156 9.261719 12.863281 9.210938 L 12.859375 9.214844 C 12.835938 9.191406 12.808594 9.167969 12.785156 9.144531 L 14.269531 7.535156 C 14.09375 7.070312 14.097656 6.578125 14.257812 6.050781 C 14.429688 5.480469 14.792969 4.875 15.320312 4.242188 C 15.332031 4.226562 15.339844 4.210938 15.355469 4.195312 L 19.007812 0.238281 Z M 11.160156 10.84375 C 10.996094 10.660156 11.011719 10.375 11.195312 10.210938 C 11.378906 10.046875 11.660156 10.0625 11.824219 10.246094 C 13.664062 12.304688 19.34375 18.398438 20.917969 20.675781 C 22.996094 23.613281 19.78125 24.539062 18.714844 23.46875 C 16.050781 20.894531 10.394531 14.324219 7.90625 11.539062 C 7.011719 11.917969 6.144531 11.976562 5.269531 11.726562 C 4.332031 11.460938 3.410156 10.832031 2.476562 9.871094 L 2.464844 9.859375 C 1.753906 9.109375 1.199219 8.367188 0.796875 7.636719 C 0.382812 6.882812 0.132812 6.136719 0.0429688 5.394531 C -0.0546875 4.597656 0.0195312 3.855469 0.234375 3.199219 C 0.488281 2.425781 0.933594 1.769531 1.519531 1.285156 C 2.109375 0.796875 2.835938 0.480469 3.644531 0.382812 C 4.316406 0.300781 5.046875 0.371094 5.804688 0.617188 C 6.855469 0.960938 8.078125 1.808594 9.089844 2.898438 C 9.839844 3.703125 10.480469 4.640625 10.859375 5.609375 C 11.257812 6.617188 11.378906 7.660156 11.058594 8.636719 C 10.871094 9.214844 10.53125 9.757812 10.003906 10.246094 C 9.824219 10.414062 9.542969 10.402344 9.375 10.222656 C 9.207031 10.042969 9.21875 9.761719 9.398438 9.59375 C 9.804688 9.210938 10.066406 8.796875 10.210938 8.355469 C 10.457031 7.601562 10.351562 6.761719 10.027344 5.9375 C 9.6875 5.074219 9.113281 4.230469 8.4375 3.507812 C 7.523438 2.527344 6.4375 1.765625 5.523438 1.46875 C 4.898438 1.265625 4.296875 1.207031 3.75 1.273438 C 3.113281 1.351562 2.542969 1.59375 2.085938 1.976562 C 1.628906 2.355469 1.28125 2.871094 1.078125 3.480469 C 0.90625 4.015625 0.84375 4.628906 0.925781 5.289062 C 1 5.914062 1.21875 6.554688 1.574219 7.207031 C 1.945312 7.875 2.457031 8.554688 3.117188 9.246094 L 3.121094 9.253906 C 3.945312 10.101562 4.734375 10.648438 5.519531 10.871094 C 6.257812 11.082031 7.011719 11 7.800781 10.609375 C 7.980469 10.503906 8.210938 10.539062 8.355469 10.699219 C 10.78125 13.417969 16.679688 20.253906 19.292969 22.789062 C 20.429688 23.25 21.058594 22.679688 20.515625 21.675781 C 19.667969 20.105469 12.402344 12.242188 11.160156 10.84375 Z M 8.804688 14.769531 L 3.109375 20.933594 C 3.097656 20.945312 3.085938 20.957031 3.074219 20.96875 C 2.242188 21.867188 3.714844 23.175781 4.628906 22.300781 L 10.160156 16.3125 L 10.753906 16.988281 L 5.265625 22.925781 C 5.253906 22.941406 5.242188 22.953125 5.226562 22.964844 C 4.898438 23.242188 4.566406 23.421875 4.234375 23.496094 C 3.890625 23.574219 3.550781 23.539062 3.226562 23.386719 C 3.171875 23.363281 3.121094 23.335938 3.078125 23.296875 L 2.289062 22.566406 C 2.277344 22.554688 2.265625 22.546875 2.253906 22.53125 C 1.949219 22.179688 1.804688 21.804688 1.84375 21.410156 C 1.882812 21.035156 2.082031 20.667969 2.457031 20.316406 L 8.207031 14.09375 Z M 14.773438 11.320312 L 15.109375 10.957031 C 15.277344 10.773438 15.5625 10.761719 15.742188 10.929688 C 15.921875 11.097656 15.933594 11.378906 15.765625 11.5625 L 15.375 11.984375 Z M 20.402344 1.550781 C 20.570312 1.367188 20.851562 1.355469 21.03125 1.523438 C 21.214844 1.691406 21.226562 1.972656 21.058594 2.15625 L 17.851562 5.625 C 17.683594 5.808594 17.402344 5.820312 17.222656 5.652344 C 17.039062 5.484375 17.027344 5.203125 17.195312 5.019531 Z M 21.789062 2.832031 C 21.957031 2.652344 22.238281 2.640625 22.417969 2.808594 C 22.601562 2.976562 22.613281 3.257812 22.445312 3.4375 L 19.242188 6.90625 C 19.074219 7.089844 18.792969 7.101562 18.609375 6.933594 C 18.429688 6.765625 18.417969 6.484375 18.585938 6.300781 Z M 23.226562 4.167969 C 23.394531 3.984375 23.675781 3.972656 23.855469 4.140625 C 24.039062 4.308594 24.050781 4.59375 23.882812 4.773438 L 20.226562 8.730469 C 20.210938 8.746094 20.199219 8.757812 20.183594 8.769531 C 19.351562 9.570312 18.558594 10.035156 17.796875 10.164062 C 16.972656 10.308594 16.21875 10.074219 15.523438 9.46875 C 15.339844 9.304688 15.320312 9.023438 15.480469 8.839844 C 15.644531 8.652344 15.925781 8.636719 16.109375 8.796875 C 16.589844 9.214844 17.101562 9.378906 17.640625 9.28125 C 18.222656 9.183594 18.863281 8.796875 19.5625 8.125 L 19.566406 8.121094 L 23.222656 4.164062 Z M 23.226562 4.167969 "/>
</g>
</svg>
