<?xml version="1.0" encoding="UTF-8"?>
<svg xmlns="http://www.w3.org/2000/svg" xmlns:xlink="http://www.w3.org/1999/xlink" width="20px" height="20px" viewBox="0 0 20 20" version="1.1">
<g id="surface1">
<path style=" stroke:none;fill-rule:nonzero;fill:rgb(97.647059%,97.647059%,97.647059%);fill-opacity:1;" d="M 15.84375 0.203125 C 15.984375 0.0507812 16.21875 0.0390625 16.367188 0.179688 C 16.519531 0.320312 16.53125 0.554688 16.390625 0.707031 L 13.34375 4.003906 L 13.339844 4.011719 C 12.964844 4.460938 12.710938 4.878906 12.597656 5.257812 C 12.496094 5.597656 12.511719 5.902344 12.660156 6.167969 C 12.738281 6.3125 12.714844 6.488281 12.609375 6.601562 L 11.160156 8.167969 C 11.019531 8.015625 10.90625 7.890625 10.832031 7.808594 C 10.796875 7.761719 10.757812 7.71875 10.71875 7.675781 L 10.714844 7.679688 C 10.695312 7.65625 10.675781 7.636719 10.652344 7.617188 L 11.890625 6.28125 C 11.746094 5.890625 11.746094 5.480469 11.878906 5.042969 C 12.023438 4.566406 12.328125 4.0625 12.765625 3.535156 C 12.773438 3.519531 12.785156 3.507812 12.792969 3.496094 L 15.839844 0.199219 Z M 9.296875 9.035156 C 9.160156 8.882812 9.175781 8.644531 9.328125 8.507812 C 9.480469 8.371094 9.71875 8.386719 9.855469 8.539062 C 11.386719 10.253906 16.121094 15.332031 17.433594 17.226562 C 19.160156 19.679688 16.484375 20.449219 15.59375 19.558594 C 13.375 17.410156 8.660156 11.9375 6.589844 9.617188 C 5.84375 9.933594 5.117188 9.980469 4.390625 9.773438 C 3.609375 9.550781 2.84375 9.027344 2.0625 8.222656 L 2.054688 8.214844 C 1.460938 7.589844 0.996094 6.972656 0.664062 6.363281 C 0.320312 5.734375 0.109375 5.113281 0.0351562 4.496094 C -0.046875 3.832031 0.015625 3.214844 0.195312 2.664062 C 0.40625 2.019531 0.777344 1.476562 1.265625 1.070312 C 1.757812 0.664062 2.363281 0.398438 3.035156 0.316406 C 3.59375 0.25 4.207031 0.308594 4.835938 0.515625 C 5.710938 0.800781 6.730469 1.507812 7.574219 2.414062 C 8.199219 3.085938 8.730469 3.867188 9.050781 4.671875 C 9.378906 5.511719 9.480469 6.382812 9.214844 7.195312 C 9.058594 7.675781 8.777344 8.128906 8.335938 8.539062 C 8.183594 8.679688 7.949219 8.667969 7.8125 8.519531 C 7.671875 8.367188 7.679688 8.132812 7.832031 7.992188 C 8.171875 7.675781 8.390625 7.328125 8.507812 6.964844 C 8.710938 6.332031 8.625 5.636719 8.355469 4.949219 C 8.074219 4.230469 7.59375 3.527344 7.03125 2.921875 C 6.269531 2.105469 5.363281 1.472656 4.601562 1.222656 C 4.082031 1.054688 3.582031 1.003906 3.125 1.058594 C 2.59375 1.125 2.117188 1.328125 1.738281 1.644531 C 1.359375 1.964844 1.066406 2.390625 0.898438 2.902344 C 0.753906 3.34375 0.703125 3.855469 0.769531 4.40625 C 0.832031 4.929688 1.015625 5.460938 1.308594 6.003906 C 1.621094 6.5625 2.046875 7.128906 2.597656 7.707031 L 2.597656 7.710938 C 3.285156 8.417969 3.945312 8.875 4.597656 9.058594 C 5.214844 9.234375 5.84375 9.167969 6.5 8.839844 C 6.648438 8.753906 6.84375 8.78125 6.960938 8.917969 C 8.984375 11.179688 13.898438 16.878906 16.078125 18.988281 C 17.023438 19.375 17.546875 18.898438 17.09375 18.0625 C 16.390625 16.753906 10.335938 10.199219 9.296875 9.035156 Z M 7.335938 12.308594 L 2.589844 17.441406 C 2.578125 17.453125 2.570312 17.460938 2.558594 17.472656 C 1.867188 18.222656 3.09375 19.3125 3.855469 18.582031 L 8.464844 13.59375 L 8.960938 14.15625 L 4.386719 19.105469 C 4.375 19.117188 4.367188 19.125 4.355469 19.136719 C 4.082031 19.367188 3.804688 19.515625 3.527344 19.578125 C 3.242188 19.644531 2.960938 19.613281 2.6875 19.488281 C 2.644531 19.46875 2.601562 19.445312 2.5625 19.414062 L 1.90625 18.804688 C 1.898438 18.796875 1.886719 18.789062 1.878906 18.777344 C 1.625 18.484375 1.503906 18.171875 1.535156 17.839844 C 1.566406 17.527344 1.734375 17.222656 2.046875 16.929688 L 6.839844 11.746094 Z M 12.308594 9.433594 L 12.589844 9.128906 C 12.730469 8.976562 12.96875 8.96875 13.117188 9.109375 C 13.265625 9.25 13.277344 9.484375 13.136719 9.632812 L 12.8125 9.984375 Z M 17 1.289062 C 17.140625 1.140625 17.375 1.128906 17.527344 1.269531 C 17.675781 1.410156 17.6875 1.644531 17.546875 1.796875 L 14.875 4.6875 C 14.738281 4.839844 14.503906 4.847656 14.351562 4.707031 C 14.199219 4.570312 14.191406 4.335938 14.328125 4.183594 Z M 18.15625 2.359375 C 18.296875 2.207031 18.53125 2.199219 18.683594 2.339844 C 18.832031 2.480469 18.84375 2.714844 18.703125 2.863281 L 16.035156 5.753906 C 15.894531 5.90625 15.660156 5.917969 15.507812 5.777344 C 15.355469 5.636719 15.347656 5.402344 15.488281 5.25 Z M 19.355469 3.472656 C 19.492188 3.320312 19.726562 3.3125 19.878906 3.449219 C 20.03125 3.589844 20.039062 3.828125 19.902344 3.976562 L 16.855469 7.277344 C 16.84375 7.285156 16.832031 7.296875 16.820312 7.308594 C 16.125 7.976562 15.464844 8.359375 14.832031 8.46875 C 14.144531 8.589844 13.515625 8.394531 12.9375 7.890625 C 12.78125 7.753906 12.765625 7.519531 12.902344 7.363281 C 13.035156 7.210938 13.273438 7.195312 13.425781 7.328125 C 13.824219 7.675781 14.25 7.8125 14.699219 7.734375 C 15.1875 7.652344 15.71875 7.332031 16.300781 6.769531 L 16.304688 6.765625 L 19.351562 3.46875 Z M 19.355469 3.472656 "/>
</g>
</svg>
