<?xml version="1.0" encoding="UTF-8"?>
<svg xmlns="http://www.w3.org/2000/svg" xmlns:xlink="http://www.w3.org/1999/xlink" width="px" height="19px" viewBox="0 0 38 19" version="1.1">
<g id="surface1">
<path style=" stroke:none;fill-rule:evenodd;fill:rgb(0%,0%,0%);fill-opacity:1;" d="M 9.503906 0 L 9.515625 0 C 11.152344 0 12.695312 0.421875 14.042969 1.15625 L 29.65625 1.15625 C 31.945312 1.15625 34.03125 2.097656 35.546875 3.609375 C 37.058594 5.121094 37.996094 7.207031 37.996094 9.5 C 37.996094 11.792969 37.058594 13.878906 35.546875 15.390625 L 35.515625 15.421875 C 34.007812 16.914062 31.933594 17.84375 29.65625 17.84375 L 14.046875 17.84375 C 12.699219 18.578125 11.152344 19 9.515625 19 L 9.503906 19 C 6.890625 19 4.515625 17.929688 2.792969 16.210938 C 1.074219 14.488281 0.00390625 12.113281 0.00390625 9.5 C 0.00390625 6.886719 1.070312 4.511719 2.792969 2.789062 L 2.859375 2.726562 C 4.578125 1.042969 6.925781 0 9.503906 0 Z M 9.0625 4.039062 C 9.0625 3.894531 9.121094 3.761719 9.214844 3.667969 C 9.417969 3.460938 9.753906 3.460938 9.960938 3.667969 L 9.96875 3.679688 C 10.0625 3.777344 10.113281 3.90625 10.113281 4.039062 L 10.113281 5 C 10.113281 5.144531 10.054688 5.277344 9.960938 5.371094 C 9.753906 5.574219 9.417969 5.574219 9.214844 5.371094 C 9.117188 5.273438 9.0625 5.140625 9.0625 5 Z M 9.511719 6.351562 C 10.378906 6.351562 11.167969 6.703125 11.738281 7.273438 C 12.304688 7.84375 12.660156 8.632812 12.660156 9.5 C 12.660156 10.371094 12.304688 11.15625 11.738281 11.726562 C 11.167969 12.296875 10.378906 12.648438 9.511719 12.648438 C 8.640625 12.648438 7.855469 12.296875 7.285156 11.726562 C 6.714844 11.15625 6.359375 10.371094 6.359375 9.5 C 6.359375 8.628906 6.714844 7.84375 7.285156 7.273438 C 7.855469 6.703125 8.640625 6.351562 9.511719 6.351562 Z M 5.332031 5.957031 C 5.230469 5.855469 5.175781 5.722656 5.175781 5.582031 C 5.175781 5.292969 5.414062 5.058594 5.703125 5.058594 C 5.835938 5.058594 5.972656 5.109375 6.074219 5.210938 L 6.753906 5.890625 C 6.851562 5.988281 6.90625 6.121094 6.90625 6.261719 C 6.90625 6.394531 6.855469 6.53125 6.753906 6.632812 C 6.65625 6.734375 6.519531 6.789062 6.382812 6.789062 C 6.25 6.789062 6.113281 6.738281 6.011719 6.636719 Z M 4.046875 9.949219 C 3.902344 9.949219 3.769531 9.890625 3.675781 9.792969 C 3.472656 9.589844 3.472656 9.253906 3.675781 9.050781 L 3.6875 9.039062 C 3.785156 8.949219 3.914062 8.898438 4.046875 8.898438 L 5.007812 8.898438 C 5.148438 8.898438 5.28125 8.953125 5.378906 9.050781 C 5.480469 9.148438 5.535156 9.285156 5.535156 9.421875 C 5.535156 9.566406 5.476562 9.699219 5.378906 9.792969 C 5.28125 9.894531 5.148438 9.949219 5.007812 9.949219 Z M 5.964844 13.679688 C 5.867188 13.777344 5.730469 13.832031 5.59375 13.832031 C 5.304688 13.832031 5.066406 13.597656 5.066406 13.308594 C 5.066406 13.171875 5.117188 13.039062 5.21875 12.9375 L 5.910156 12.246094 C 6.007812 12.152344 6.136719 12.101562 6.273438 12.101562 C 6.5625 12.101562 6.796875 12.339844 6.796875 12.628906 C 6.796875 12.761719 6.746094 12.894531 6.644531 13 Z M 9.957031 14.960938 C 9.957031 15.105469 9.898438 15.238281 9.804688 15.332031 C 9.601562 15.539062 9.265625 15.539062 9.058594 15.332031 L 9.050781 15.324219 C 8.957031 15.226562 8.90625 15.097656 8.90625 14.960938 L 8.90625 14 C 8.90625 13.855469 8.964844 13.726562 9.058594 13.628906 C 9.265625 13.425781 9.597656 13.425781 9.804688 13.628906 C 9.902344 13.726562 9.957031 13.863281 9.957031 14 Z M 13.6875 13.046875 C 13.789062 13.144531 13.84375 13.277344 13.84375 13.417969 C 13.84375 13.707031 13.605469 13.945312 13.316406 13.945312 C 13.183594 13.945312 13.046875 13.890625 12.945312 13.789062 L 12.265625 13.109375 C 12.167969 13.011719 12.113281 12.878906 12.113281 12.738281 C 12.113281 12.449219 12.347656 12.210938 12.636719 12.210938 C 12.769531 12.210938 12.90625 12.261719 13.007812 12.367188 Z M 14.972656 9.050781 C 15.117188 9.050781 15.25 9.113281 15.34375 9.207031 C 15.546875 9.410156 15.546875 9.746094 15.34375 9.949219 L 15.332031 9.960938 C 15.234375 10.050781 15.105469 10.105469 14.972656 10.105469 L 14.011719 10.105469 C 13.867188 10.105469 13.734375 10.042969 13.640625 9.949219 C 13.433594 9.746094 13.433594 9.410156 13.640625 9.207031 C 13.738281 9.105469 13.871094 9.050781 14.011719 9.050781 Z M 13.054688 5.320312 C 13.152344 5.222656 13.289062 5.167969 13.425781 5.167969 C 13.714844 5.167969 13.953125 5.402344 13.953125 5.691406 C 13.953125 5.828125 13.902344 5.960938 13.800781 6.0625 L 13.109375 6.753906 C 13.011719 6.847656 12.882812 6.898438 12.746094 6.898438 C 12.457031 6.898438 12.222656 6.664062 12.222656 6.371094 C 12.222656 6.238281 12.273438 6.105469 12.375 6 Z M 15.589844 2.214844 C 15.8125 2.398438 16.023438 2.589844 16.222656 2.792969 C 17.945312 4.511719 19.015625 6.886719 19.015625 9.5 C 19.015625 12.113281 17.945312 14.488281 16.226562 16.210938 C 16.023438 16.410156 15.8125 16.605469 15.59375 16.785156 L 29.65625 16.785156 C 31.644531 16.785156 33.457031 15.976562 34.777344 14.671875 L 34.800781 14.644531 C 36.121094 13.324219 36.941406 11.503906 36.941406 9.5 C 36.941406 7.496094 36.121094 5.675781 34.800781 4.355469 C 33.480469 3.03125 31.660156 2.214844 29.65625 2.214844 Z M 9.503906 1.121094 L 9.515625 1.121094 C 14.125 1.121094 17.894531 4.890625 17.894531 9.5 C 17.894531 14.109375 14.121094 17.878906 9.515625 17.878906 L 9.503906 17.878906 C 4.898438 17.878906 1.125 14.109375 1.125 9.5 C 1.125 4.890625 4.894531 1.121094 9.503906 1.121094 Z M 9.503906 1.121094 "/>
</g>
</svg>
