<?xml version="1.0" encoding="UTF-8"?>
<svg xmlns="http://www.w3.org/2000/svg" xmlns:xlink="http://www.w3.org/1999/xlink" width="24px" height="px" viewBox="0 0 23 18" version="1.1">
<g id="surface1">
<path style=" stroke:none;fill-rule:nonzero;fill:rgb(97.647059%,97.647059%,97.647059%);fill-opacity:1;" d="M 12.992188 0.21875 C 12.21875 0.261719 11.472656 0.421875 10.910156 0.667969 C 10.601562 0.800781 10.40625 0.917969 10.023438 1.1875 C 9.109375 1.839844 8.53125 2.648438 8.367188 3.527344 C 8.316406 3.789062 8.316406 4.328125 8.367188 4.570312 C 8.476562 5.097656 8.738281 5.488281 9.160156 5.757812 C 9.335938 5.871094 9.722656 6.027344 9.992188 6.101562 C 10.222656 6.160156 10.691406 6.160156 10.929688 6.101562 C 11.464844 5.964844 11.929688 5.597656 12.113281 5.164062 C 12.238281 4.871094 12.28125 4.484375 12.230469 4.125 C 12.175781 3.695312 12.042969 3.441406 11.582031 2.875 C 11.320312 2.550781 11.296875 2.507812 11.296875 2.320312 C 11.296875 2.210938 11.308594 2.136719 11.335938 2.0625 C 11.410156 1.882812 11.574219 1.671875 11.679688 1.628906 C 11.765625 1.601562 12.304688 1.589844 12.5 1.613281 C 12.710938 1.640625 12.992188 1.730469 13.164062 1.824219 C 13.328125 1.910156 13.566406 2.128906 13.683594 2.296875 C 13.921875 2.640625 14.089844 3.136719 14.160156 3.738281 C 14.199219 4.023438 14.199219 4.953125 14.160156 5.234375 C 14.117188 5.574219 14.023438 6.046875 13.933594 6.347656 C 13.789062 6.835938 13.632812 7.207031 13.277344 7.886719 C 12.726562 8.933594 12.527344 9.433594 12.421875 10.035156 C 12.378906 10.269531 12.382812 11.476562 12.425781 11.539062 C 12.464844 11.597656 12.859375 12.003906 12.886719 12.015625 C 12.910156 12.023438 13.835938 12 13.847656 11.988281 C 13.851562 11.984375 13.875 11.789062 13.894531 11.554688 C 13.964844 10.816406 14.0625 10.328125 14.199219 10.074219 C 14.277344 9.929688 14.464844 9.707031 14.628906 9.5625 C 14.699219 9.5 15.164062 9.191406 15.660156 8.875 C 16.59375 8.28125 16.839844 8.113281 17.152344 7.859375 C 17.359375 7.691406 17.664062 7.394531 17.835938 7.191406 C 18.121094 6.855469 18.414062 6.367188 18.5625 5.984375 C 18.792969 5.371094 18.878906 4.523438 18.773438 3.820312 C 18.644531 2.933594 18.28125 2.230469 17.613281 1.585938 C 16.765625 0.761719 15.632812 0.332031 14.039062 0.226562 C 13.550781 0.195312 13.4375 0.195312 12.992188 0.21875 Z M 12.992188 0.21875 "/>
<path style=" stroke:none;fill-rule:nonzero;fill:rgb(97.647059%,97.647059%,97.647059%);fill-opacity:1;" d="M 5.242188 6.921875 C 4.621094 7.058594 4.125 7.542969 3.957031 8.175781 C 3.855469 8.542969 3.996094 8.898438 4.394531 9.273438 C 4.773438 9.640625 5.226562 9.855469 5.980469 10.039062 C 6.296875 10.117188 6.375 10.152344 6.4375 10.257812 L 6.480469 10.328125 L 6.398438 10.402344 C 6.347656 10.445312 6.308594 10.507812 6.292969 10.566406 C 6.234375 10.78125 6.171875 10.953125 6.113281 11.066406 C 6.078125 11.132812 6.027344 11.261719 6 11.347656 C 5.960938 11.480469 5.929688 11.527344 5.828125 11.632812 C 5.757812 11.707031 5.699219 11.792969 5.683594 11.84375 C 5.667969 11.890625 5.625 11.964844 5.589844 12.003906 C 5.515625 12.085938 5.511719 12.09375 5.550781 12.199219 C 5.574219 12.257812 5.574219 12.28125 5.550781 12.3125 C 5.460938 12.457031 5.644531 12.664062 5.863281 12.664062 C 5.957031 12.664062 6.003906 12.578125 5.945312 12.515625 C 5.898438 12.460938 5.898438 12.441406 5.953125 12.394531 C 5.984375 12.371094 6 12.332031 6 12.285156 C 6 12.183594 6.035156 12.09375 6.074219 12.09375 C 6.128906 12.09375 6.183594 12.015625 6.167969 11.964844 C 6.144531 11.890625 6.210938 11.8125 6.300781 11.8125 C 6.382812 11.8125 6.421875 11.78125 6.449219 11.6875 C 6.464844 11.625 6.484375 11.613281 6.671875 11.570312 C 6.734375 11.554688 6.800781 11.519531 6.839844 11.476562 C 6.902344 11.410156 6.910156 11.410156 6.933594 11.449219 C 6.953125 11.46875 6.992188 11.59375 7.027344 11.722656 C 7.085938 11.976562 7.085938 11.972656 7.003906 12.257812 C 6.980469 12.339844 6.96875 12.46875 6.96875 12.601562 C 6.96875 12.769531 6.957031 12.828125 6.921875 12.894531 C 6.800781 13.117188 6.449219 14.042969 6.25 14.648438 C 6.152344 14.941406 6.152344 14.941406 5.941406 15.222656 C 5.746094 15.484375 5.566406 15.769531 5.335938 16.195312 C 4.984375 16.832031 4.894531 17.019531 4.855469 17.183594 L 4.820312 17.34375 L 4.871094 17.398438 C 4.945312 17.472656 5.421875 17.699219 5.679688 17.78125 C 5.796875 17.816406 5.957031 17.851562 6.042969 17.859375 C 6.230469 17.875 6.269531 17.847656 6.269531 17.695312 C 6.269531 17.574219 6.253906 17.550781 6.011719 17.296875 C 5.839844 17.121094 5.683594 16.863281 5.683594 16.765625 C 5.683594 16.730469 5.714844 16.648438 5.753906 16.574219 C 5.855469 16.375 6.425781 15.492188 6.589844 15.28125 C 6.726562 15.105469 7.308594 14.007812 7.535156 13.511719 C 7.621094 13.320312 7.671875 13.25 7.703125 13.28125 C 7.707031 13.285156 7.726562 13.457031 7.746094 13.660156 C 7.765625 13.863281 7.792969 14.117188 7.808594 14.21875 L 7.832031 14.410156 L 7.75 14.519531 C 7.484375 14.867188 7.285156 15.640625 7.335938 16.101562 C 7.367188 16.398438 7.394531 16.46875 7.5 16.527344 C 7.65625 16.609375 8.070312 16.730469 8.285156 16.753906 C 8.523438 16.78125 8.640625 16.761719 8.746094 16.679688 C 8.800781 16.632812 8.808594 16.609375 8.804688 16.523438 C 8.800781 16.390625 8.742188 16.328125 8.417969 16.113281 C 8.132812 15.921875 7.894531 15.710938 7.894531 15.644531 C 7.894531 15.570312 7.996094 15.207031 8.085938 14.976562 C 8.125 14.859375 8.203125 14.703125 8.253906 14.632812 C 8.355469 14.484375 8.351562 14.496094 8.402344 13.996094 C 8.441406 13.585938 8.445312 13.15625 8.410156 12.871094 C 8.398438 12.761719 8.386719 12.460938 8.382812 12.203125 C 8.375 11.796875 8.367188 11.710938 8.324219 11.558594 C 8.296875 11.464844 8.265625 11.355469 8.261719 11.320312 C 8.246094 11.242188 8.238281 11.242188 8.75 11.417969 C 9.132812 11.554688 9.148438 11.5625 9.304688 11.703125 C 9.441406 11.828125 9.484375 11.851562 9.574219 11.863281 C 9.65625 11.875 9.707031 11.902344 9.808594 11.988281 C 9.984375 12.136719 10.105469 12.160156 10.105469 12.046875 C 10.105469 11.988281 10.054688 11.9375 9.910156 11.84375 C 9.714844 11.722656 9.855469 11.667969 10.070312 11.777344 C 10.261719 11.882812 10.378906 11.886719 10.378906 11.792969 C 10.378906 11.738281 10.320312 11.691406 10.15625 11.613281 C 9.925781 11.507812 10.023438 11.433594 10.257812 11.535156 C 10.402344 11.601562 10.472656 11.609375 10.515625 11.558594 C 10.539062 11.527344 10.539062 11.507812 10.496094 11.4375 C 10.46875 11.390625 10.445312 11.324219 10.445312 11.285156 C 10.445312 11.214844 10.363281 11.113281 10.308594 11.113281 C 10.292969 11.113281 10.25 11.078125 10.21875 11.042969 C 10.148438 10.960938 10.148438 10.964844 9.859375 11.0625 C 9.789062 11.085938 9.695312 11.117188 9.640625 11.132812 C 9.589844 11.144531 9.511719 11.183594 9.464844 11.222656 C 9.417969 11.257812 9.363281 11.285156 9.339844 11.285156 C 9.320312 11.285156 9.191406 11.238281 9.058594 11.179688 C 8.917969 11.121094 8.667969 11.023438 8.492188 10.957031 C 8.109375 10.820312 8.082031 10.804688 7.996094 10.71875 C 7.886719 10.605469 7.484375 10.324219 7.390625 10.296875 C 7.292969 10.269531 7.117188 10.128906 7.070312 10.039062 C 7.027344 9.960938 7.027344 9.820312 7.070312 9.726562 C 7.085938 9.6875 7.160156 9.566406 7.238281 9.457031 C 7.410156 9.210938 7.46875 9.050781 7.46875 8.847656 C 7.46875 8.625 7.410156 8.476562 7.128906 7.960938 C 6.851562 7.453125 6.785156 7.347656 6.65625 7.230469 C 6.5625 7.140625 6.28125 7 6.078125 6.945312 C 5.890625 6.898438 5.417969 6.882812 5.242188 6.921875 Z M 6.695312 11.105469 C 6.746094 11.164062 6.789062 11.222656 6.789062 11.230469 C 6.789062 11.257812 6.472656 11.355469 6.445312 11.339844 C 6.414062 11.320312 6.425781 11.261719 6.484375 11.132812 C 6.519531 11.058594 6.5625 11.003906 6.578125 11.003906 C 6.59375 11.003906 6.644531 11.046875 6.695312 11.105469 Z M 6.695312 11.105469 "/>
<path style=" stroke:none;fill-rule:nonzero;fill:rgb(97.647059%,97.647059%,97.647059%);fill-opacity:1;" d="M 12.5625 13.070312 C 11.671875 13.230469 10.953125 13.914062 10.800781 14.746094 C 10.746094 15.042969 10.773438 15.4375 10.863281 15.695312 C 10.902344 15.804688 11.226562 16.496094 11.34375 16.71875 C 11.550781 17.113281 11.910156 17.449219 12.320312 17.632812 C 12.859375 17.867188 13.554688 17.867188 14.15625 17.625 C 14.484375 17.492188 14.921875 17.148438 15.148438 16.84375 C 15.277344 16.664062 15.429688 16.355469 15.492188 16.132812 C 15.539062 15.964844 15.546875 15.902344 15.546875 15.613281 C 15.550781 15.332031 15.542969 15.257812 15.503906 15.109375 C 15.449219 14.910156 15.335938 14.667969 15.214844 14.5 C 15.097656 14.332031 14.308594 13.53125 14.144531 13.414062 C 13.96875 13.285156 13.6875 13.152344 13.480469 13.097656 C 13.273438 13.046875 12.78125 13.03125 12.5625 13.070312 Z M 12.5625 13.070312 "/>
</g>
</svg>
