<?xml version="1.0" encoding="UTF-8" standalone="no"?>
<svg
   version="1.0"
   width="1280.000000pt"
   height="968.000000pt"
   viewBox="0 0 1280.000000 968.000000"
   preserveAspectRatio="xMidYMid meet"
   id="svg3"
   sodipodi:docname="question.svg"
   inkscape:version="1.4.2 (ebf0e94, 2025-05-08)"
   xmlns:inkscape="http://www.inkscape.org/namespaces/inkscape"
   xmlns:sodipodi="http://sodipodi.sourceforge.net/DTD/sodipodi-0.dtd"
   xmlns="http://www.w3.org/2000/svg"
   xmlns:svg="http://www.w3.org/2000/svg">
  <defs
     id="defs3" />
  <sodipodi:namedview
     id="namedview3"
     pagecolor="#ffffff"
     bordercolor="#000000"
     borderopacity="0.25"
     inkscape:showpageshadow="2"
     inkscape:pageopacity="0.0"
     inkscape:pagecheckerboard="0"
     inkscape:deskcolor="#d1d1d1"
     inkscape:document-units="pt"
     inkscape:zoom="0.62990702"
     inkscape:cx="854.0943"
     inkscape:cy="712.00984"
     inkscape:window-width="1920"
     inkscape:window-height="1094"
     inkscape:window-x="-11"
     inkscape:window-y="-11"
     inkscape:window-maximized="1"
     inkscape:current-layer="g3" />
  <g
     transform="translate(0.000000,968.000000) scale(0.100000,-0.100000)"
     fill="#000000"
     stroke="none"
     id="g3">
    <path
       d="m 7230.9505,9561.4903 c -431.2488,-22.9524 -845.5636,-108.5028 -1159.4044,-239.9585 -170.4674,-71.9876 -281.1019,-134.5855 -492.2106,-279.6039 -510.2734,-350.5483 -830.8876,-786.6471 -923.4594,-1258.2179 -28.223,-140.8453 -28.223,-430.8822 0,-561.2945 60.9619,-283.7772 206.593,-494.5234 441.4091,-638.4986 98.2164,-60.5113 313.8407,-146.0618 463.9876,-184.6639 128.6972,-32.3422 388.3496,-32.3422 520.4337,0 299.1647,71.9876 557.6881,270.2143 659.2912,503.9132 68.8644,157.538 93.7007,365.1544 66.6065,558.1646 -30.4809,230.569 -104.9898,367.241 -361.2555,671.8842 -146.76,174.2308 -160.3071,198.2267 -160.3071,299.4266 0,57.3814 7.9025,99.1133 23.7074,138.7587 39.5123,97.0268 132.084,209.7029 190.788,231.6122 47.4148,16.6928 347.7085,22.9526 454.9562,9.3897 118.5369,-15.6494 275.4573,-63.6412 370.2869,-112.6762 91.4428,-46.9485 224.6557,-163.7978 290.1333,-254.5648 132.084,-184.6639 224.6558,-452.7915 265.297,-776.214 20.3206,-153.3649 20.3206,-653.1048 0,-803.3398 -23.7074,-183.6205 -76.7667,-437.142 -127.5683,-599.8966 -79.0247,-261.8678 -167.0807,-461.1378 -364.6423,-826.2923 -305.9382,-563.3811 -416.5728,-833.5953 -475.2768,-1155.9746 -23.7073,-126.2391 -22.5785,-776.214 1.129,-809.5996 21.4495,-30.2556 241.5896,-248.305 257.3945,-255.608 13.5471,-5.2165 528.3362,9.3896 535.1097,15.6494 2.2579,1.0433 13.5471,105.3732 25.9652,231.6123 38.3835,398.54 93.7007,659.3645 169.3386,796.0367 42.899,79.2906 146.76,199.27 238.2028,275.4307 39.5123,33.3855 298.0358,199.27 573.4931,369.3277 520.4338,319.2493 658.1624,410.0162 830.8877,546.6883 115.1501,89.7236 284.4887,250.3917 380.4472,358.8947 158.0492,180.4906 321.7432,443.4018 404.1552,649.9749 129.826,329.6822 177.24,784.5604 118.536,1163.2777 -72.251,476.7873 -275.457,854.4613 -645.7439,1201.8797 -471.89,443.4018 -1102.9582,675.0141 -1990.292,730.3093 -270.9416,16.6922 -333.0324,17.7355 -581.3956,4.1726 z"
       id="path1"
       style="fill:#f9f9f9;stroke-width:1.08527" />
    <path
       d="m 2917.4248,5957.0653 c -346.7387,-74.0693 -621.8683,-332.724 -716.0908,-673.6779 -55.2772,-197.5181 22.6134,-387.982 243.7221,-591.3786 211.0584,-196.3424 463.5746,-312.737 883.1787,-411.496 175.882,-41.1496 218.5962,-61.1366 253.7726,-116.3946 l 23.8697,-38.7982 -45.2268,-38.7982 c -27.6386,-24.6898 -50.252,-57.6095 -59.0461,-89.3535 -32.6638,-114.0432 -67.8402,-208.0994 -100.504,-269.236 -18.8445,-35.2711 -47.7394,-103.4618 -61.5587,-150.4899 -22.6134,-70.5422 -40.2015,-97.5834 -95.4787,-152.8414 -40.2016,-39.9739 -72.8654,-85.8264 -81.6595,-114.0432 -8.7941,-25.8655 -31.4075,-64.6637 -51.5083,-85.8264 -41.4579,-43.501 -42.7142,-49.3795 -21.3571,-104.6375 12.563,-31.744 12.563,-44.6767 0,-62.3123 -50.252,-76.4207 52.7646,-188.1125 173.3694,-188.1125 51.5082,0 77.8905,47.0282 46.483,79.9478 -27.6385,28.2169 -26.3822,39.9739 3.7689,64.6637 16.3319,12.9327 25.126,34.0954 25.126,59.9609 0,52.9066 20.1008,101.1104 41.4579,101.1104 30.1512,0 61.5587,43.501 52.7646,70.5422 -13.8193,39.9739 23.8697,82.2992 74.1217,82.2992 46.4831,0 67.8402,16.4599 81.6595,67.0151 10.0504,34.0954 20.1008,38.7982 125.63,63.4879 33.92,8.23 70.3527,27.0412 92.9661,49.3796 33.9201,35.2711 37.689,35.2711 52.7646,15.2841 10.0504,-11.757 31.4075,-78.7721 50.252,-148.1386 33.9201,-135.2058 33.9201,-132.8544 -11.3067,-288.0472 -13.8193,-43.501 -21.3571,-112.8675 -21.3571,-183.4097 0,-90.5291 -5.0252,-122.2731 -25.126,-158.7199 -66.5839,-119.9217 -263.8229,-616.0684 -374.3773,-942.9138 -54.0209,-157.5442 -54.0209,-157.5442 -170.8567,-309.2099 -109.2981,-141.0844 -208.5458,-293.9258 -337.9447,-522.01218 -194.7264,-343.3052 -244.9784,-443.24 -266.3355,-532.59342 l -20.1008,-85.82632 28.8949,-29.39258 c 40.2016,-39.9739 306.5371,-161.07131 448.499,-204.57232 65.3276,-18.811252 155.7811,-38.798202 202.2642,-42.325312 105.5292,-9.40563 126.8863,5.87851 126.8863,88.177722 0,64.66367 -8.7941,77.5964 -144.4745,213.97795 -94.2224,94.05625 -182.1634,232.78918 -182.1634,285.69588 0,17.6355 17.5882,63.4879 38.9453,103.4618 56.5335,105.8133 375.6336,581.97298 466.0872,694.84048 75.378,95.232 400.7596,685.4349 525.1332,952.3195 47.7394,102.2861 76.6343,139.9086 94.2225,123.4488 2.5126,-2.3514 13.8193,-94.0563 25.126,-204.5723 10.0504,-109.3404 25.126,-244.5463 32.6638,-300.98 l 15.0756,-102.2862 -46.4831,-58.7851 c -146.987,-185.7611 -258.7977,-601.96 -231.1591,-851.209 18.8445,-159.89558 33.9201,-197.51808 91.7099,-228.08638 87.9409,-44.6767 317.8438,-109.3404 437.1923,-122.2731 131.9114,-15.2842 198.4953,-4.7028 256.2851,41.1496 30.1512,24.6897 35.1764,36.4468 32.6638,83.4749 -2.5126,70.5422 -35.1764,104.6376 -216.0836,221.03218 -158.2937,102.2861 -290.2052,216.3293 -290.2052,251.6004 0,38.7982 56.5335,233.9649 105.5292,359.7651 22.6134,62.3123 65.3276,145.7872 94.2225,184.5854 56.5334,79.9478 55.2771,72.8936 82.9157,340.9539 22.6134,222.2079 23.8697,452.6457 5.0252,605.487 -6.2815,58.7852 -13.8193,219.8565 -16.3319,358.5895 -3.7689,219.8564 -7.5378,264.5331 -32.6638,346.8324 -15.0755,51.7309 -31.4074,109.3403 -35.1763,128.1516 -7.5378,43.501 -11.3067,43.501 272.617,-52.9066 213.5709,-72.8936 221.1087,-77.5964 309.0497,-152.8414 75.378,-65.8394 99.2477,-78.7721 149.4997,-85.8264 45.2268,-7.0542 74.1217,-21.1626 129.3989,-67.015 97.9913,-79.9478 167.0878,-92.8806 167.0878,-30.5683 0,30.5683 -28.8949,58.7851 -110.5544,108.1647 -106.7854,65.8393 -30.1511,95.2319 89.1973,35.2711 108.0418,-56.4338 172.1131,-58.7852 172.1131,-7.0543 0,29.3926 -32.6638,54.0824 -124.3737,95.232 -126.8863,57.6094 -72.8654,97.5833 56.5335,42.3253 81.6595,-35.2711 120.6048,-38.7982 144.4745,-11.757 13.8193,16.4598 12.563,25.8654 -11.3067,64.6636 -15.0756,24.6898 -27.6386,61.1366 -27.6386,81.1235 0,37.6225 -46.4831,94.0563 -76.6343,94.0563 -8.7941,0 -31.4075,17.6355 -50.252,37.6225 -37.689,43.501 -38.9453,42.3253 -199.7516,-11.7571 -37.689,-12.9327 -91.7099,-29.3925 -120.6048,-36.4467 -28.8949,-7.0543 -72.8654,-28.2169 -99.2477,-48.2039 -26.3823,-18.8112 -56.5335,-35.2711 -67.8402,-35.2711 -11.3067,0 -82.9158,25.8655 -158.2937,56.4338 -76.6343,31.744 -217.3399,85.8263 -314.075,119.9217 -213.5709,74.0693 -228.6465,82.2992 -276.3859,129.3273 -60.3024,61.1366 -283.9237,211.6266 -336.6883,225.735 -55.2772,15.2841 -152.0123,90.5291 -178.3946,139.9087 -23.8697,41.1496 -23.8697,117.5703 -1.2563,168.1255 8.7941,21.1626 51.5083,85.8263 94.2225,144.6115 96.7351,132.8544 129.3989,217.505 129.3989,326.8454 -1.2563,119.9217 -33.9201,199.8695 -190.9576,478.5111 -153.2686,271.5874 -190.9576,328.0212 -261.3103,392.6848 -52.7646,48.2039 -208.5458,122.2732 -322.8691,151.6657 -103.0165,27.0412 -366.8395,34.0954 -464.8309,12.9328 z m 809.0571,-2249.1199 c 28.8948,-31.744 51.5082,-62.3123 51.5082,-68.1908 0,-14.1084 -175.8819,-65.8394 -190.9575,-57.6094 -17.5882,10.5813 -11.3067,41.1496 22.6134,111.6918 18.8445,38.7981 41.4579,69.3664 50.252,69.3664 8.7941,0 38.9453,-24.6897 66.5839,-55.258 z"
       id="path2"
       style="fill:#f9f9f9;stroke-width:1.21533" />
    <path
       d="m 6991.6188,2651.7253 c -496.7263,-87.6371 -895.2363,-453.8349 -979.9056,-902.4532 -30.4809,-158.5813 -15.8049,-370.3709 34.9966,-509.1296 21.4495,-59.468 200.9484,-430.88218 266.4259,-550.86153 115.1503,-211.78958 316.0986,-393.3235 544.1412,-491.39354 300.2936,-127.282402 686.3854,-126.23911 1020.5468,4.17319 184.0144,70.94429 426.733,255.60811 552.0435,419.40595 73.3801,97.02675 158.0493,263.95449 191.917,382.89053 25.9652,90.767 29.352,123.1091 30.4809,279.6039 1.129,151.2783 -2.2578,190.9237 -24.8363,270.2144 -29.352,107.4597 -92.5717,236.8286 -159.1782,327.5956 -66.6065,91.8103 -505.7576,521.6492 -596.0716,585.2904 -98.2163,68.8577 -255.1367,140.8453 -370.2869,169.0143 -115.1501,28.1692 -388.3496,36.5155 -510.2733,15.6496 z"
       id="path3"
       style="fill:#f9f9f9;stroke-width:1.08527" />
  </g>
</svg>
