<?xml version="1.0" encoding="UTF-8" standalone="no"?>
<svg
   width="24px"
   height="px"
   viewBox="0 0 23 18"
   version="1.1"
   id="svg3"
   sodipodi:docname="question_black.svg"
   inkscape:version="1.4.2 (f4327f4, 2025-05-13)"
   xmlns:inkscape="http://www.inkscape.org/namespaces/inkscape"
   xmlns:sodipodi="http://sodipodi.sourceforge.net/DTD/sodipodi-0.dtd"
   xmlns="http://www.w3.org/2000/svg"
   xmlns:svg="http://www.w3.org/2000/svg">
  <defs
     id="defs3" />
  <sodipodi:namedview
     id="namedview3"
     pagecolor="#ffffff"
     bordercolor="#000000"
     borderopacity="0.25"
     inkscape:showpageshadow="2"
     inkscape:pageopacity="0.0"
     inkscape:pagecheckerboard="0"
     inkscape:deskcolor="#d1d1d1"
     inkscape:zoom="45.166667"
     inkscape:cx="12"
     inkscape:cy="9"
     inkscape:window-width="1920"
     inkscape:window-height="1094"
     inkscape:window-x="-11"
     inkscape:window-y="-11"
     inkscape:window-maximized="1"
     inkscape:current-layer="surface1" />
  <g
     id="surface1">
    <path
       style="fill:#000000;fill-opacity:1;fill-rule:nonzero;stroke:none"
       d="M 12.992188,0.21875 C 12.21875,0.261719 11.472656,0.421875 10.910156,0.667969 10.601562,0.800781 10.40625,0.917969 10.023438,1.1875 9.109375,1.839844 8.53125,2.648438 8.367188,3.527344 c -0.050782,0.261718 -0.050782,0.800781 0,1.042968 0.109374,0.527344 0.371093,0.917969 0.792968,1.1875 0.175782,0.113282 0.5625,0.269532 0.832032,0.34375 0.230468,0.058594 0.699218,0.058594 0.9375,0 0.535156,-0.136718 1,-0.503906 1.183593,-0.9375 0.125,-0.292968 0.167969,-0.679687 0.117188,-1.039062 -0.05469,-0.429688 -0.1875,-0.683594 -0.648438,-1.25 -0.261719,-0.324219 -0.285156,-0.367188 -0.285156,-0.554688 0,-0.109374 0.01172,-0.183593 0.03906,-0.257812 0.07422,-0.179688 0.238281,-0.390625 0.34375,-0.433594 0.08594,-0.027344 0.625,-0.039062 0.820312,-0.015625 0.210938,0.027344 0.492188,0.117188 0.664062,0.210938 0.164063,0.085937 0.402344,0.304687 0.519532,0.472656 0.238281,0.34375 0.40625,0.839844 0.476562,1.441406 0.03906,0.285157 0.03906,1.214844 0,1.496094 -0.04297,0.339844 -0.136718,0.8125 -0.226562,1.113281 -0.144532,0.488282 -0.300782,0.859375 -0.65625,1.539063 -0.550782,1.046875 -0.75,1.546875 -0.855469,2.148437 -0.04297,0.234375 -0.03906,1.441406 0.0039,1.503906 0.03906,0.05859 0.433594,0.464844 0.460938,0.476563 0.02344,0.0078 0.949219,-0.01563 0.960937,-0.02734 0.0039,-0.0039 0.02734,-0.199219 0.04687,-0.433593 0.07031,-0.738282 0.167969,-1.226563 0.304688,-1.480469 C 14.277344,9.929688 14.464844,9.707031 14.628906,9.5625 14.699219,9.5 15.164062,9.191406 15.660156,8.875 16.59375,8.28125 16.839844,8.113281 17.152344,7.859375 17.359375,7.691406 17.664062,7.394531 17.835938,7.191406 18.121094,6.855469 18.414062,6.367188 18.5625,5.984375 18.792969,5.371094 18.878906,4.523438 18.773438,3.820312 18.644531,2.933594 18.28125,2.230469 17.613281,1.585938 16.765625,0.761719 15.632812,0.332031 14.039062,0.226562 13.550781,0.195312 13.4375,0.195312 12.992188,0.21875 Z"
       id="path1"
       sodipodi:nodetypes="cccccccccccsccccccccccccsccccccccccc" />
    <path
       style="fill:#000000;fill-opacity:1;fill-rule:nonzero;stroke:none"
       d="M 5.242188,6.921875 C 4.621094,7.058594 4.125,7.542969 3.957031,8.175781 c -0.101562,0.367188 0.039063,0.722657 0.4375,1.097657 0.378907,0.367187 0.832031,0.582031 1.585938,0.765624 0.316406,0.07813 0.394531,0.113282 0.457031,0.21875 l 0.042969,0.07031 -0.082031,0.07422 c -0.050782,0.04297 -0.089844,0.105468 -0.105469,0.164062 -0.058594,0.214844 -0.121094,0.386719 -0.179688,0.5 C 6.078125,11.132812 6.027344,11.261719 6,11.347656 5.960938,11.480469 5.929688,11.527344 5.828125,11.632812 5.757812,11.707031 5.699219,11.792969 5.683594,11.84375 5.667969,11.890625 5.625,11.964844 5.589844,12.003906 c -0.074219,0.08203 -0.078125,0.08984 -0.039063,0.195313 0.023438,0.05859 0.023438,0.08203 0,0.113281 -0.089843,0.144531 0.09375,0.351562 0.3125,0.351562 0.09375,0 0.140625,-0.08594 0.082031,-0.148437 -0.046874,-0.05469 -0.046874,-0.07422 0.00781,-0.121094 C 5.984375,12.371094 6,12.332031 6,12.285156 6,12.183594 6.035156,12.09375 6.074219,12.09375 c 0.054687,0 0.109375,-0.07813 0.09375,-0.128906 -0.023438,-0.07422 0.042969,-0.152344 0.132812,-0.152344 0.082031,0 0.121094,-0.03125 0.148438,-0.125 0.015625,-0.0625 0.035156,-0.07422 0.222656,-0.117188 0.0625,-0.01562 0.128906,-0.05078 0.167969,-0.09375 0.0625,-0.06641 0.070312,-0.06641 0.09375,-0.02734 0.019531,0.01953 0.058594,0.144531 0.09375,0.273437 0.058594,0.253906 0.058594,0.25 -0.023438,0.535156 -0.023437,0.08203 -0.035156,0.210938 -0.035156,0.34375 0,0.167969 -0.011719,0.226563 -0.046875,0.292969 -0.121094,0.222657 -0.472656,1.148438 -0.671875,1.753907 -0.097656,0.292968 -0.097656,0.292968 -0.308594,0.574218 -0.195312,0.261719 -0.375,0.546875 -0.605468,0.972656 -0.351563,0.636719 -0.441407,0.824219 -0.480469,0.988282 l -0.035157,0.160156 0.050782,0.05469 c 0.074218,0.07422 0.550781,0.300781 0.808594,0.382812 0.117187,0.03516 0.277343,0.07031 0.363281,0.07813 0.1875,0.01563 0.226562,-0.01172 0.226562,-0.164063 0,-0.121093 -0.015625,-0.144531 -0.257812,-0.398437 -0.171875,-0.175781 -0.328125,-0.433594 -0.328125,-0.53125 0,-0.03516 0.03125,-0.117187 0.070312,-0.191406 C 5.855469,16.375 6.425781,15.492188 6.589844,15.28125 6.726562,15.105469 7.308594,14.007812 7.535156,13.511719 7.621094,13.320312 7.671875,13.25 7.703125,13.28125 c 0.00391,0.0039 0.023437,0.175781 0.042969,0.378906 0.019531,0.203125 0.046875,0.457032 0.0625,0.558594 L 7.832031,14.410156 7.75,14.519531 c -0.265625,0.347657 -0.464844,1.121094 -0.414062,1.582031 0.03125,0.296876 0.058593,0.367188 0.164062,0.425782 0.15625,0.08203 0.570312,0.203125 0.785156,0.226562 0.238282,0.02734 0.355469,0.0078 0.460938,-0.07422 0.054687,-0.04688 0.0625,-0.07031 0.058594,-0.15625 -0.00391,-0.132813 -0.0625,-0.195313 -0.386719,-0.410157 -0.285157,-0.191406 -0.523438,-0.402343 -0.523438,-0.46875 0,-0.07422 0.101563,-0.4375 0.191407,-0.667969 0.039062,-0.117187 0.117187,-0.273437 0.167968,-0.34375 0.101563,-0.148437 0.097656,-0.136718 0.148438,-0.636718 0.039062,-0.410156 0.042968,-0.839844 0.00781,-1.125 C 8.398438,12.761719 8.386719,12.460938 8.382812,12.203125 8.375,11.796875 8.367188,11.710938 8.324219,11.558594 8.296875,11.464844 8.265625,11.355469 8.261719,11.320312 8.246094,11.242188 8.238281,11.242188 8.75,11.417969 c 0.382812,0.136719 0.398438,0.144531 0.554688,0.285156 0.136718,0.125 0.179687,0.148437 0.269531,0.160156 0.082031,0.01172 0.132812,0.03906 0.234375,0.125 0.175781,0.148438 0.296875,0.171875 0.296875,0.05859 0,-0.05859 -0.05078,-0.109375 -0.195313,-0.203125 -0.195312,-0.121094 -0.054687,-0.175781 0.160156,-0.06641 0.191407,0.105468 0.308594,0.109375 0.308594,0.01563 0,-0.05469 -0.05859,-0.101563 -0.222656,-0.179688 -0.230469,-0.105469 -0.132812,-0.179687 0.101562,-0.07813 0.144532,0.06641 0.214844,0.07422 0.257813,0.02344 0.02344,-0.03125 0.02344,-0.05078 -0.01953,-0.121094 -0.02734,-0.04687 -0.05078,-0.113281 -0.05078,-0.152344 0,-0.07031 -0.08203,-0.171875 -0.136718,-0.171875 -0.01563,0 -0.05859,-0.03516 -0.08984,-0.07031 -0.07031,-0.08203 -0.07031,-0.07813 -0.359375,0.01953 -0.070313,0.02344 -0.164063,0.05469 -0.21875,0.07031 -0.050781,0.01172 -0.128906,0.05078 -0.175781,0.08984 -0.046875,0.03516 -0.101563,0.0625 -0.125,0.0625 -0.019532,0 -0.148438,-0.04687 -0.28125,-0.105468 C 8.917969,11.121094 8.667969,11.023438 8.492188,10.957031 8.109375,10.820312 8.082031,10.804688 7.996094,10.71875 7.886719,10.605469 7.484375,10.324219 7.390625,10.296875 7.292969,10.269531 7.117188,10.128906 7.070312,10.039062 c -0.042968,-0.078124 -0.042968,-0.21875 0,-0.3125 C 7.085938,9.6875 7.160156,9.566406 7.238281,9.457031 7.410156,9.210938 7.46875,9.050781 7.46875,8.847656 7.46875,8.625 7.410156,8.476562 7.128906,7.960938 6.851562,7.453125 6.785156,7.347656 6.65625,7.230469 6.5625,7.140625 6.28125,7 6.078125,6.945312 5.890625,6.898438 5.417969,6.882812 5.242188,6.921875 Z m 1.453124,4.183594 c 0.050782,0.05859 0.09375,0.117187 0.09375,0.125 0,0.02734 -0.316406,0.125 -0.34375,0.109375 -0.03125,-0.01953 -0.019531,-0.07813 0.039063,-0.207032 0.035156,-0.07422 0.078125,-0.128906 0.09375,-0.128906 0.015625,0 0.066406,0.04297 0.117187,0.101563 z"
       id="path2"
       sodipodi:nodetypes="cccccccccccccccsccsscsccccccscccccccccscscscsscccccccccscccccccccccsccsccccssccccscccccccsccccssccss" />
    <path
       style="fill:#000000;fill-opacity:1;fill-rule:nonzero;stroke:none"
       d="m 12.5625,13.070312 c -0.890625,0.160157 -1.609375,0.84375 -1.761719,1.675782 -0.05469,0.296875 -0.02734,0.691406 0.0625,0.949218 0.03906,0.109376 0.363281,0.800782 0.480469,1.023438 0.207031,0.394531 0.566406,0.730469 0.976562,0.914062 0.539063,0.234376 1.234376,0.234376 1.835938,-0.0078 0.328125,-0.132812 0.765625,-0.476562 0.992188,-0.78125 0.128906,-0.179688 0.28125,-0.488281 0.34375,-0.710938 0.04687,-0.167968 0.05469,-0.230468 0.05469,-0.519531 0.0039,-0.28125 -0.0039,-0.355469 -0.04297,-0.503906 C 15.449219,14.910156 15.335938,14.667969 15.214844,14.5 15.097656,14.332031 14.308594,13.53125 14.144531,13.414062 13.96875,13.285156 13.6875,13.152344 13.480469,13.097656 13.273438,13.046875 12.78125,13.03125 12.5625,13.070312 Z"
       id="path3"
       sodipodi:nodetypes="cccccccccccccc" />
  </g>
</svg>
